<svg id="visual" viewBox="0 0 2000 2000" width="2000" height="2000" xmlns="http://www.w3.org/2000/svg" xmlns:xlink="http://www.w3.org/1999/xlink" version="1.1"><path d="M0 201L182 501L364 261L545 261L727 581L909 241L1091 521L1273 221L1455 481L1636 321L1818 441L2000 421L2000 0L1818 0L1636 0L1455 0L1273 0L1091 0L909 0L727 0L545 0L364 0L182 0L0 0Z" fill="#00cc8e"></path><path d="M0 441L182 701L364 601L545 561L727 781L909 521L1091 841L1273 341L1455 721L1636 561L1818 601L2000 581L2000 419L1818 439L1636 319L1455 479L1273 219L1091 519L909 239L727 579L545 259L364 259L182 499L0 199Z" fill="#00b98a"></path><path d="M0 821L182 1321L364 1061L545 1001L727 1521L909 1081L1091 1181L1273 1041L1455 1301L1636 1161L1818 1141L2000 1261L2000 579L1818 599L1636 559L1455 719L1273 339L1091 839L909 519L727 779L545 559L364 599L182 699L0 439Z" fill="#00a784"></path><path d="M0 1761L182 1621L364 1721L545 1741L727 1801L909 1801L1091 1841L1273 1781L1455 1781L1636 1681L1818 1721L2000 1621L2000 1259L1818 1139L1636 1159L1455 1299L1273 1039L1091 1179L909 1079L727 1519L545 999L364 1059L182 1319L0 819Z" fill="#00957c"></path><path d="M0 2001L182 2001L364 2001L545 2001L727 2001L909 2001L1091 2001L1273 2001L1455 2001L1636 2001L1818 2001L2000 2001L2000 1619L1818 1719L1636 1679L1455 1779L1273 1779L1091 1839L909 1799L727 1799L545 1739L364 1719L182 1619L0 1759Z" fill="#038373"></path></svg>